<?xml version="1.0" encoding="utf-8"?>
<!-- Generator: Adobe Illustrator 21.0.0, SVG Export Plug-In . SVG Version: 6.00 Build 0)  -->
<svg version="1.1" xmlns="http://www.w3.org/2000/svg" xmlns:xlink="http://www.w3.org/1999/xlink" x="0px" y="0px"
	 viewBox="0 0 188 188" style="enable-background:new 0 0 188 188;" xml:space="preserve">
<style type="text/css">
	.st0{opacity:0.2;fill:#FFFFFF;}
	.st1{fill:#FFFFFF;}
	.st2{fill:#DB5449;}
	.st3{fill:#C54B42;}
	.st4{fill:#D05045;}
	.st5{fill:#BB483E;}
	.st6{fill:#EB6258;}
	.st7{fill:#EFEFEF;}
	.st8{fill:#E2574C;}
	.st9{fill:#DCDCDC;}
	.st10{fill:#D1D1D1;}
</style>
<g id="Capa_1">
	<circle id="XMLID_8_" class="st0" cx="97" cy="94.8" r="90.8"/>
	<circle class="st1" cx="92" cy="91.8" r="90.8"/>
</g>
<g id="Layer_1">
	<g>
		<path class="st2" d="M42.5,72.8l50.6,25.3l50.6-25.3v53.9L93.1,152l-50.6-25.3V72.8z"/>
		<path class="st3" d="M42.5,77.8v15.8l50.4,24.7l50.7-24.8V77.8l-50.6,24.8L42.5,77.8z"/>
		<path class="st4" d="M93.1,152V98.1L45.9,74.5h-3.4v52.3L93.1,152z"/>
		<path class="st5" d="M42.5,77.8v15.8l50.4,24.7l0.2-0.1v-15.7v0.1L42.5,77.8z"/>
		<path class="st6" d="M39.1,71l53.9-26.9L147,71v3.5l-53.9,26.9L39.1,74.6V71z"/>
		<path class="st7" d="M124,52.6c-1.8-3.2-5.6-5.1-10-5.1c-10.2,0-17.4,9.5-20.9,15.6C89.5,57,82.3,47.6,72.2,47.6
			c-6.5,0-11.1,4-11.1,9.4c0,9.6,10.5,15.8,31.7,15.8s32.4-8,32.4-15.8C125.1,55.5,124.8,54,124,52.6z M74.4,63
			c-2.4-1.6-3.2-3.4-3.2-4.6c0-1.4,1.3-2.5,3.3-2.5c4.6,0,8.2,6,10.2,10.1C79.3,65.6,76.2,64.2,74.4,63z M111.8,63
			c-1.9,1.2-5,2.6-10.3,3c1.9-4.1,5.6-10.1,10.2-10.1c1.9,0,3.3,1.1,3.3,2.5C115,59.6,114.1,61.4,111.8,63z"/>
		<path class="st8" d="M39.1,71.1l53.9,26.4L147,71.1v17.4l-54.1,26.4L39.1,88.5V71.1z"/>
		<path class="st7" d="M113.3,89.9v-1.9L93.1,77l-20.2,11v1.9L59.4,84v-2.7l33-17.4l0.7,0.3l0.7-0.3l33,17.4v2.7L113.3,89.9z"/>
		<path class="st9" d="M113.3,87.9v53.9l13.5-6.7V81.2L113.3,87.9z"/>
		<path class="st10" d="M59.4,135.1l13.5,6.7V88l-13.5-6.8L59.4,135.1z"/>
	</g>
</g>
</svg>
